HIERARCHY
ROOT Hips
{
	OFFSET 0.000000 0.000000 0.000000
	CHANNELS 6 Xposition Yposition Zposition Xrotation Yrotation Zrotation
	JOINT LeftUpLeg_virtual
	{
		OFFSET 0.000000 0.000000 0.000000
		CHANNELS 3 Xrotation Yrotation Zrotation
		JOINT LeftUpLeg
		{
			OFFSET 11.394100 -6.187798 -0.413800
			CHANNELS 3 Xrotation Yrotation Zrotation
			JOINT LeftLeg
			{
				OFFSET 0.430247 -32.302673 3.732800
				CHANNELS 3 Xrotation Yrotation Zrotation
				JOINT LeftFoot
				{
					OFFSET -0.430247 -48.264931 -6.423300
					CHANNELS 3 Xrotation Yrotation Zrotation
					JOINT LeftToeBase
					{
						OFFSET 4.230900 -16.068199 23.438400
						CHANNELS 3 Xrotation Yrotation Zrotation
						JOINT LeftToe_End
						{
							OFFSET 4.510700 0.695400 19.974600
							CHANNELS 3 Xrotation Yrotation Zrotation
							End Site
							{
								OFFSET 0 0 0
							}
						}
					}
				}
			}
		}
	}
	JOINT RightUpLeg_virtual
	{
		OFFSET 0.000000 0.000000 0.000000
		CHANNELS 3 Xrotation Yrotation Zrotation
		JOINT RightUpLeg
		{
			OFFSET -11.333700 -6.187798 -0.413800
			CHANNELS 3 Xrotation Yrotation Zrotation
			JOINT RightLeg
			{
				OFFSET -0.430392 -32.302628 3.733000
				CHANNELS 3 Xrotation Yrotation Zrotation
				JOINT RightFoot
				{
					OFFSET 0.430392 -48.264973 -6.423500
					CHANNELS 3 Xrotation Yrotation Zrotation
					JOINT RightToeBase
					{
						OFFSET -4.230900 -16.068199 23.438400
						CHANNELS 3 Xrotation Yrotation Zrotation
						JOINT RightToe_End
						{
							OFFSET -4.510700 0.695400 19.974600
							CHANNELS 3 Xrotation Yrotation Zrotation
							End Site
							{
								OFFSET 0 0 0
							}
						}
					}
				}
			}
		}
	}
	JOINT Spine_virtual
	{
		OFFSET 0.000000 0.000000 0.000000
		CHANNELS 3 Xrotation Yrotation Zrotation
		JOINT Spine
		{
			OFFSET -0.002400 12.777504 0.315300
			CHANNELS 3 Xrotation Yrotation Zrotation
			JOINT Spine1
			{
				OFFSET -0.002067 5.816869 0.032633
				CHANNELS 3 Xrotation Yrotation Zrotation
				JOINT Spine1_split
				{
					OFFSET -0.002067 5.816869 0.032633
					CHANNELS 3 Xrotation Yrotation Zrotation
					JOINT Spine2
					{
						OFFSET -0.002067 5.816869 0.032633
						CHANNELS 3 Xrotation Yrotation Zrotation
						JOINT Neck_virtual
						{
							OFFSET 0.000000 0.000000 0.000000
							CHANNELS 3 Xrotation Yrotation Zrotation
							JOINT Neck
							{
								OFFSET -0.003700 21.199493 -0.826900
								CHANNELS 3 Xrotation Yrotation Zrotation
								JOINT Head
								{
									OFFSET 0.000000 20.442200 4.834800
									CHANNELS 3 Xrotation Yrotation Zrotation
									JOINT HeadTop_End
									{
										OFFSET 0.000000 34.668396 4.968400
										CHANNELS 3 Xrotation Yrotation Zrotation
										End Site
										{
											OFFSET 0 0 0
										}
									}
								}
							}
						}
						JOINT LeftShoulder_virtual
						{
							OFFSET 0.000000 0.000000 0.000000
							CHANNELS 3 Xrotation Yrotation Zrotation
							JOINT LeftShoulder
							{
								OFFSET 3.288150 8.794197 -1.372250
								CHANNELS 3 Xrotation Yrotation Zrotation
								JOINT LeftShoulder_split
								{
									OFFSET 3.288150 8.794197 -1.372250
									CHANNELS 3 Xrotation Yrotation Zrotation
									JOINT LeftArm
									{
										OFFSET 11.953299 -2.279007 -0.146200
										CHANNELS 3 Xrotation Yrotation Zrotation
										JOINT LeftForeArm
										{
											OFFSET 18.448900 0.000000 0.000000
											CHANNELS 3 Xrotation Yrotation Zrotation
											JOINT LeftHand
											{
												OFFSET 29.527798 0.000000 0.000000
												CHANNELS 3 Xrotation Yrotation Zrotation
												End Site
												{
													OFFSET 0 0 0
												}
											}
										}
									}
								}
							}
						}
						JOINT RightShoulder_virtual
						{
							OFFSET 0.000000 0.000000 0.000000
							CHANNELS 3 Xrotation Yrotation Zrotation
							JOINT RightShoulder
							{
								OFFSET -3.249400 8.794197 -1.372250
								CHANNELS 3 Xrotation Yrotation Zrotation
								JOINT RightShoulder_split
								{
									OFFSET -3.249400 8.794197 -1.372250
									CHANNELS 3 Xrotation Yrotation Zrotation
									JOINT RightArm
									{
										OFFSET -11.953299 -2.279007 -0.146200
										CHANNELS 3 Xrotation Yrotation Zrotation
										JOINT RightForeArm
										{
											OFFSET -18.448900 0.000000 0.000000
											CHANNELS 3 Xrotation Yrotation Zrotation
											JOINT RightHand
											{
												OFFSET -29.527802 0.000000 0.000000
												CHANNELS 3 Xrotation Yrotation Zrotation
												End Site
												{
													OFFSET 0 0 0
												}
											}
										}
									}
								}
							}
						}
					}
				}
			}
		}
	}
}
MOTION
Frames: 10
Frame Time: 0.03333333
2.683115 98.155121 -9.887171 0.000000 0.000000 0.000000 -17.830583 -7.633439 -1.725354 0.937199 31.344653 5.148086 30.620230 9.642083 -2.115010 -10.679972 17.411771 -7.673373 -2.208158 -4.032613 7.720709 0.000000 0.000000 0.000000 -16.935736 -8.499268 -2.399557 19.781804 -14.466739 3.430716 21.923751 -3.223992 1.589229 -25.723158 -24.137743 1.382324 -5.962090 5.531922 -16.555694 0.000000 0.000000 0.000000 -17.814312 -3.679360 -2.317210 5.997133 -5.893820 -3.085525 2.806006 -0.537532 -0.647923 0.158668 0.092409 -0.011720 0.000000 0.000000 0.000000 6.844607 0.580221 -0.154138 4.221559 3.458669 1.537013 -12.984303 -20.035506 9.207299 0.000000 0.000000 0.000000 5.607073 -0.628445 -0.655113 5.861384 -4.167417 -9.945500 7.467082 -7.971352 -0.455973 -28.858567 6.793003 -32.520870 8.101758 -52.373211 6.245326 0.000000 0.000000 0.000000 4.884007 -0.993134 -0.300424 -1.257656 8.766579 16.507840 4.252194 3.563187 1.137131 -12.778680 0.841499 60.350780 -7.443856 38.735601 4.764092 0.000000 0.000000 0.000000 
2.381691 98.063087 -9.831709 0.000000 0.000000 0.000000 -17.937291 -7.783909 -1.875904 0.269198 30.712922 5.887055 32.501138 9.632380 -2.405494 -10.166297 17.149831 -7.130465 -1.334062 -3.872692 7.324767 0.000000 0.000000 0.000000 -16.794414 -8.473728 -2.439100 19.520457 -14.693188 3.622798 22.529060 -3.084952 1.460935 -25.745353 -24.500930 1.408184 -5.224001 5.355150 -16.379162 0.000000 0.000000 0.000000 -17.875445 -4.102732 -2.464807 6.254615 -6.079630 -3.122764 2.780666 -0.575726 -0.654451 0.157540 0.056209 -0.004588 0.000000 0.000000 0.000000 6.844522 0.547709 -0.159271 4.271588 3.517595 1.530002 -12.932461 -19.949051 9.208063 0.000000 0.000000 0.000000 5.677122 -0.677633 -0.642815 5.827094 -4.258600 -9.976089 7.522730 -7.991661 -0.458183 -29.164986 6.582143 -32.726674 8.169639 -52.675737 6.347990 0.000000 0.000000 0.000000 4.876754 -1.033798 -0.278994 -1.223435 8.747153 16.516135 4.107111 3.168330 1.115715 -12.637007 0.510709 60.413993 -7.520615 38.684822 4.857141 0.000000 0.000000 0.000000 
1.943701 98.047997 -9.639666 0.000000 0.000000 0.000000 -18.036460 -8.166340 -2.460531 -2.390221 29.540404 7.843027 35.775185 9.147810 -2.823495 -8.094005 15.813580 -6.978403 0.399727 -3.678062 6.285527 0.000000 0.000000 0.000000 -16.720716 -8.728803 -2.871387 19.155966 -14.910923 3.758044 23.402526 -2.577511 1.352792 -26.311837 -24.753917 1.307271 -3.602051 5.197780 -16.661811 0.000000 0.000000 0.000000 -17.902126 -4.946080 -2.975522 6.477057 -6.218716 -2.945482 2.773660 -0.653585 -0.684427 0.159723 0.031856 0.000279 0.000000 0.000000 0.000000 6.857513 0.474584 -0.202346 4.353586 3.602483 1.537131 -12.917624 -19.642815 9.388363 0.000000 0.000000 0.000000 5.743378 -0.774871 -0.667617 5.751236 -4.305959 -10.066339 7.576287 -7.981177 -0.466254 -29.646638 6.379030 -32.990008 8.385778 -52.835605 6.545595 0.000000 0.000000 0.000000 4.879734 -1.120376 -0.276266 -1.181270 8.578123 16.445765 3.707249 2.819401 1.166559 -12.347041 0.257251 60.341504 -7.646711 38.606169 4.999984 0.000000 0.000000 0.000000 
1.513265 98.104218 -9.339869 0.000000 0.000000 0.000000 -18.194340 -8.955729 -3.396156 -5.977204 27.710644 10.331495 39.049926 7.952876 -3.016173 -4.672838 13.236969 -7.363793 -0.737260 -3.827044 5.953652 0.000000 0.000000 0.000000 -16.786885 -9.417928 -3.636598 18.707582 -15.045051 3.829369 24.407051 -1.741296 1.241393 -27.035702 -24.896267 1.240232 -1.847132 5.143509 -17.337329 0.000000 0.000000 0.000000 -17.930104 -6.119825 -3.752917 6.633293 -6.269802 -2.595734 2.798866 -0.748281 -0.729284 0.167425 0.041347 0.007936 0.000000 0.000000 0.000000 6.873276 0.373978 -0.275005 4.465960 3.701543 1.554850 -12.927113 -19.141410 9.678240 0.000000 0.000000 0.000000 5.802451 -0.907750 -0.719033 5.631844 -4.308242 -10.195124 7.634141 -7.922085 -0.424731 -30.175472 6.235435 -33.268806 8.640698 -52.776920 6.739795 0.000000 0.000000 0.000000 4.898336 -1.232861 -0.287167 -1.133122 8.297291 16.292021 3.152926 2.631193 1.212998 -11.970796 0.185303 60.169834 -7.790408 38.504061 5.151119 0.000000 0.000000 0.000000 
1.195803 98.222435 -8.870073 0.000000 0.000000 0.000000 -18.421889 -10.328236 -4.502536 -8.644030 25.255379 12.156284 41.087648 6.426189 -2.743018 -1.759836 9.925313 -7.430989 -5.305654 -4.413968 6.634051 0.000000 0.000000 0.000000 -16.966151 -10.580835 -4.588512 18.103169 -15.008892 3.738743 25.352023 -0.547762 1.081704 -27.214738 -25.007030 1.710771 -1.151171 5.298928 -18.256233 0.000000 0.000000 0.000000 -18.041600 -7.755742 -4.688362 6.728564 -6.207355 -2.155514 2.860616 -0.843278 -0.777839 0.171432 0.057052 -0.002342 0.000000 0.000000 0.000000 6.889391 0.262157 -0.356221 4.599975 3.822456 1.574975 -12.984290 -18.485214 9.996010 0.000000 0.000000 0.000000 5.866196 -1.057742 -0.772819 5.483113 -4.287876 -10.320499 7.729284 -7.857347 -0.343260 -30.653346 6.144690 -33.498779 8.813159 -52.574008 6.818862 0.000000 0.000000 0.000000 4.925908 -1.350191 -0.302181 -1.094232 7.948408 16.080072 2.557950 2.507914 1.260893 -11.572217 0.349615 59.926789 -7.912576 38.357010 5.256880 0.000000 0.000000 0.000000 
1.011578 98.360596 -8.193037 0.000000 0.000000 0.000000 -18.688321 -12.332603 -5.598889 -9.894310 22.735979 12.785540 41.948584 5.314279 -2.227415 -0.933710 6.920236 -6.659826 -8.755505 -5.006559 6.958660 0.000000 0.000000 0.000000 -17.232829 -12.353016 -5.555584 17.336231 -14.677281 3.436521 26.151917 0.985883 0.805179 -26.657144 -25.109106 2.823226 -1.519246 5.609613 -19.194730 0.000000 0.000000 0.000000 -18.337764 -9.905652 -5.711070 6.760861 -6.019313 -1.724291 2.945236 -0.924452 -0.814775 0.160417 0.087918 -0.022269 0.000000 0.000000 0.000000 6.907007 0.154738 -0.430507 4.732678 3.963134 1.584924 -13.136121 -17.706881 10.254670 0.000000 0.000000 0.000000 5.948787 -1.202654 -0.808972 5.323447 -4.276300 -10.433113 7.840666 -7.809716 -0.244563 -31.023996 6.114117 -33.629891 8.833068 -52.337298 6.724051 0.000000 0.000000 0.000000 4.957721 -1.457729 -0.309461 -1.076800 7.595920 15.853327 1.967773 2.347313 1.312343 -11.196201 0.718346 59.667904 -7.977028 38.164290 5.271117 0.000000 0.000000 0.000000 
0.963661 98.490845 -7.398401 0.000000 0.000000 0.000000 -19.052220 -14.873632 -6.606233 -10.013910 20.323711 12.383720 41.758312 4.485474 -1.489974 -1.912190 4.597822 -6.078850 -8.619690 -5.202319 6.658535 0.000000 0.000000 0.000000 -17.607196 -14.800168 -6.462521 16.474321 -14.013911 2.982393 26.665484 2.591160 0.411319 -25.812653 -25.169865 3.904861 -1.935004 5.858550 -19.888536 0.000000 0.000000 0.000000 -18.857247 -12.433586 -6.746891 6.752765 -5.739185 -1.385140 3.050342 -0.986461 -0.835568 0.157430 0.114495 -0.033925 0.000000 0.000000 0.000000 6.936522 0.070610 -0.482070 4.859922 4.131617 1.579862 -13.433293 -16.813407 10.410491 0.000000 0.000000 0.000000 6.042706 -1.324190 -0.814508 5.169632 -4.309006 -10.519178 7.927829 -7.747786 -0.210981 -31.280333 6.130900 -33.653018 8.670220 -52.118448 6.434305 0.000000 0.000000 0.000000 4.986695 -1.542222 -0.298137 -1.080734 7.297058 15.655485 1.464437 2.144993 1.380232 -10.869354 1.184360 59.405488 -7.975421 37.944624 5.175093 0.000000 0.000000 0.000000 
1.055481 98.626793 -6.531992 0.000000 0.000000 0.000000 -19.554338 -18.045524 -7.601896 -9.189256 17.917832 11.121240 40.578939 3.618054 -0.535858 -3.602812 3.047899 -6.626989 -5.968866 -5.045775 6.207434 0.000000 0.000000 0.000000 -18.055135 -17.837850 -7.348713 15.518600 -13.161094 2.458119 26.848917 4.044209 -0.055607 -25.237126 -25.234122 4.332405 -1.645790 5.887693 -20.238078 0.000000 0.000000 0.000000 -19.539742 -15.274316 -7.821089 6.708146 -5.378945 -1.167102 3.159361 -1.027050 -0.837483 0.158080 0.111900 -0.037722 0.000000 0.000000 0.000000 6.994011 0.024242 -0.497718 4.957173 4.316677 1.563360 -13.876062 -15.891272 10.467466 0.000000 0.000000 0.000000 6.130964 -1.407049 -0.792785 5.031043 -4.394999 -10.581932 7.987777 -7.671521 -0.255472 -31.444531 6.164223 -33.587582 8.387629 -51.941956 6.004488 0.000000 0.000000 0.000000 5.009659 -1.599849 -0.274614 -1.119542 7.112956 15.538846 1.068453 1.841344 1.458325 -10.594986 1.615445 59.151214 -7.917682 37.752559 4.973618 0.000000 0.000000 0.000000 
1.202690 98.822044 -5.622765 0.000000 0.000000 0.000000 -20.218251 -21.728176 -8.655211 -8.078203 15.846787 9.473637 38.828481 2.722728 0.451483 -4.915226 2.084566 -8.066240 -3.509959 -4.803475 6.031119 0.000000 0.000000 0.000000 -18.612079 -21.220737 -8.288847 14.510529 -12.288718 1.932184 26.742576 5.315258 -0.559791 -24.917473 -25.322959 4.125533 -0.797599 5.752653 -20.410589 0.000000 0.000000 0.000000 -20.342358 -18.307641 -8.988064 6.667023 -4.949655 -1.050789 3.266704 -1.037419 -0.826232 0.155633 0.094654 -0.027960 0.000000 0.000000 0.000000 7.073770 0.020241 -0.483192 4.982553 4.497325 1.557682 -14.392329 -15.013029 10.477240 0.000000 0.000000 0.000000 6.191439 -1.442092 -0.764630 4.901251 -4.519535 -10.645069 7.940891 -7.599240 -0.330481 -31.535646 6.201048 -33.467333 8.081855 -51.766366 5.533678 0.000000 0.000000 0.000000 5.019470 -1.626747 -0.243181 -1.189887 7.068672 15.518753 0.798140 1.483200 1.467372 -10.376705 1.904945 58.930537 -7.822321 37.652319 4.685550 0.000000 0.000000 0.000000 
1.373296 99.094437 -4.791492 0.000000 0.000000 0.000000 -21.100894 -25.662243 -9.848805 -7.128502 14.317557 7.732926 37.093248 1.953182 1.414899 -5.370229 1.275576 -9.559890 -3.151424 -4.693809 6.254601 0.000000 0.000000 0.000000 -19.299053 -24.705619 -9.338624 13.438291 -11.541853 1.426415 26.498849 6.491160 -1.063014 -24.229994 -25.433003 3.867597 -0.193723 5.645759 -20.654653 0.000000 0.000000 0.000000 -21.209940 -21.412583 -10.253931 6.657876 -4.453628 -0.992782 3.378642 -1.011522 -0.817566 0.151256 0.066259 -0.020862 0.000000 0.000000 0.000000 7.149783 0.056911 -0.453247 4.933204 4.652981 1.580174 -14.883611 -14.218552 10.502342 0.000000 0.000000 0.000000 6.221175 -1.430327 -0.748897 4.777611 -4.670675 -10.692854 7.817671 -7.524520 -0.403246 -31.599559 6.237806 -33.309166 7.825385 -51.501361 5.111556 0.000000 0.000000 0.000000 5.006695 -1.613926 -0.204697 -1.291707 7.168375 15.593505 0.652669 1.093568 1.394995 -10.220955 2.054366 58.745351 -7.704946 37.655069 4.326342 0.000000 0.000000 0.000000 
